<svg id="Grupo_3809" data-name="Grupo 3809" xmlns="http://www.w3.org/2000/svg" width="515.884" height="354.714" viewBox="0 0 515.884 354.714">
  <g id="Grupo_3804" data-name="Grupo 3804" transform="translate(87.198 233.929)">
    <path id="Caminho_46605" data-name="Caminho 46605" d="M268.711,441.125h60.975q11.332,0,18.43,9.8a17.71,17.71,0,0,1,2.392,8.47v2.117q0,7.491-7.842,13.136,7.841,5.215,7.842,13.136v3.02q0,8.626-9.49,14.939-5.647,2.863-9.685,2.862H268.711a.277.277,0,0,1-.314-.313V441.438C268.423,441.229,268.528,441.125,268.711,441.125Zm21.292,16v10.43h37.133q2.627,0,4.353-3.647a16.225,16.225,0,0,0,.314-1.647q0-3.685-4.392-4.98a4.929,4.929,0,0,0-1.333-.156Zm0,25.056v10.43h35.6q4.43,0,5.725-3.02a8.672,8.672,0,0,0,.47-2.275q0-3.607-4.235-5.136Z" transform="translate(-268.397 -441.125)" fill="#0085d3"/>
  </g>
  <g id="Grupo_3808" data-name="Grupo 3808">
    <path id="Caminho_46606" data-name="Caminho 46606" d="M417.294,441.291h21.512l28.773,33.27q28.425-33.27,28.586-33.27H517.7a.277.277,0,0,1,.267.307v17.139l-21.5,25.631V468.542L467.7,501.973h-.28q-.22-.079-28.893-33.43v39.729a.275.275,0,0,1-.307.307H417.294a.275.275,0,0,1-.307-.307V441.6C417.013,441.4,417.12,441.291,417.294,441.291Z" transform="translate(-242.414 -207.264)" fill="#0085d3" fill-rule="evenodd"/>
    <path id="Caminho_46607" data-name="Caminho 46607" d="M687.983,440.793h93.733c.31.026.477.133.477.308V456.48c0,.2-.167.308-.477.308H687.983Z" transform="translate(-354.058 -207.059)" fill="#1a1818" fill-rule="evenodd"/>
    <path id="Caminho_46608" data-name="Caminho 46608" d="M652.846,508.578H631.333l-28.773-33.27q-28.425,33.27-28.586,33.27H552.436c-.185,0-.268-.134-.268-.307V483.021l21.5-25.439v23.743l28.773-33.43h.28q.22.08,28.893,33.43V441.6a.275.275,0,0,1,.307-.306h20.925a.275.275,0,0,1,.307.306V508.27C653.126,508.471,653.019,508.578,652.846,508.578Z" transform="translate(-298.106 -207.264)" fill="#1a1818" fill-rule="evenodd"/>
    <path id="Caminho_46609" data-name="Caminho 46609" d="M732.689,528.358h84.245c.279.027.429.121.429.308v15.379c0,.2-.15.308-.429.308H732.689Z" transform="translate(-372.476 -243.134)" fill="#1a1818" fill-rule="evenodd"/>
    <path id="Caminho_46610" data-name="Caminho 46610" d="M732.689,485.747h67.577c.224.027.345.108.345.268V500.1c0,.187-.121.268-.345.268H732.689Z" transform="translate(-372.476 -225.579)" fill="#1a1818" fill-rule="evenodd"/>
    <path id="Caminho_46611" data-name="Caminho 46611" d="M858.086,440.793h60.98q11.344,0,18.431,9.8a17.758,17.758,0,0,1,2.4,8.473v2.115q0,7.488-7.843,13.144,7.83,5.22,7.843,13.13v3.025q0,8.633-9.49,14.938c-3.761,1.914-7,2.864-9.691,2.864H858.086a.276.276,0,0,1-.308-.308V492.3l21.6-.021h35.6c2.958,0,4.872-1.017,5.729-3.025a8.322,8.322,0,0,0,.469-2.276c0-2.409-1.405-4.109-4.23-5.139H884.723V467.228h31.8q2.629,0,4.35-3.655a13.685,13.685,0,0,0,.308-1.646c0-2.449-1.459-4.122-4.39-4.979a4.723,4.723,0,0,0-1.325-.161H884.723v-.026h-5.5v29.849H857.778V441.1C857.805,440.9,857.912,440.793,858.086,440.793Z" transform="translate(-424.01 -207.059)" fill="#1a1818" fill-rule="evenodd"/>
    <path id="Caminho_46612" data-name="Caminho 46612" d="M120.415,440.792h61.3a21.723,21.723,0,0,1,17.053,8,16.662,16.662,0,0,1,3.761,10.266v12.394q0,9.456-10.547,15.848a15.576,15.576,0,0,1-2.115.736q1.566,2.63,12.662,19.93v.308H175.52q-.864-.662-8.593-16.744l-1.218-1.847h-24V507.97a.276.276,0,0,1-.308.308H120.415a.276.276,0,0,1-.308-.308V473.655c17.43,0,34.785.037,52.227.037,4.39,0,7.174-1.915,8.312-5.729a11.178,11.178,0,0,0,.322-2.543c0-4.109-1.685-6.9-5.14-8.165a9.128,9.128,0,0,0-3.172-.468l-52.549,0V441.1A.287.287,0,0,1,120.415,440.792Z" transform="translate(-120.107 -207.059)" fill="#0085d3" fill-rule="evenodd"/>
    <g id="Grupo_3805" data-name="Grupo 3805" transform="translate(1.466 328.14)">
      <path id="Caminho_46613" data-name="Caminho 46613" d="M135.074,606.274c.037-3.68-6.918-3.827-9.31-1.582a5.151,5.151,0,0,0-.4,6.439c1.067,1.288,3.054,1.8,4.821,2.245,4.341,1.1,7.8,2.98,7.764,7.985a6.527,6.527,0,0,1-2.391,4.967c-2.355,1.95-6.4,1.987-9.236,1.068a5.006,5.006,0,0,1-3.716-4.71l1.8.037a3.733,3.733,0,0,0,2.76,3.2c2.392.663,5.152.7,7.212-.993a4.65,4.65,0,0,0,1.729-3.569c.037-3.937-3.348-5.556-6.4-6.329-2.207-.552-4.3-1.214-5.593-2.576-2.244-2.429-1.876-6.955.405-9.089,3.312-3.128,12.437-2.466,12.4,2.943Z" transform="translate(-122.6 -601.404)" fill="#818386"/>
      <path id="Caminho_46614" data-name="Caminho 46614" d="M170.894,601.988v25.794h-1.84V601.988Z" transform="translate(-141.738 -601.608)" fill="#818386"/>
      <path id="Caminho_46615" data-name="Caminho 46615" d="M205.013,606.274c.037-3.68-6.918-3.827-9.31-1.582a5.151,5.151,0,0,0-.4,6.439c1.067,1.288,3.054,1.8,4.821,2.245,4.341,1.1,7.8,2.98,7.764,7.985a6.527,6.527,0,0,1-2.391,4.967c-2.355,1.95-6.4,1.987-9.236,1.068a5.006,5.006,0,0,1-3.716-4.71l1.8.037a3.733,3.733,0,0,0,2.76,3.2c2.392.663,5.152.7,7.212-.993a4.65,4.65,0,0,0,1.729-3.569c.037-3.937-3.348-5.556-6.4-6.329-2.207-.552-4.3-1.214-5.593-2.576-2.245-2.429-1.876-6.955.405-9.089,3.312-3.128,12.437-2.466,12.4,2.943Z" transform="translate(-151.413 -601.404)" fill="#818386"/>
      <path id="Caminho_46616" data-name="Caminho 46616" d="M236.427,602.051h15.859v1.619h-6.991l-.073,24.138h-1.877l.073-24.138h-6.991Z" transform="translate(-169.494 -601.634)" fill="#818386"/>
      <path id="Caminho_46617" data-name="Caminho 46617" d="M284.845,613.947h11.849v1.876H284.845c0,1.177-.111,7.029.147,7.764.589,1.729,3.165,2.318,4.894,2.318h6.808v1.876h-6.808v-.036c-3.128.036-6.881-1.435-6.881-4.931V601.988h13.689v1.84H284.845Z" transform="translate(-188.683 -601.608)" fill="#818386"/>
      <path id="Caminho_46618" data-name="Caminho 46618" d="M345.25,602.051h2.281v25.757h-1.876V607.166l.258-2.612H345.8l-.773,2.465-6.844,14.608h-1.509l-6.844-14.608-.773-2.465h-.111l.258,2.612v20.643H327.33V602.051h2.282l7.8,17.147Z" transform="translate(-206.944 -601.634)" fill="#818386"/>
      <path id="Caminho_46619" data-name="Caminho 46619" d="M398.861,606.554h.036V627.6h-1.84V617.52H385.136V627.6H383.3V606.554a4.326,4.326,0,0,1,2.282-3.79c2.686-1.619,8.352-1.619,11,0A4.327,4.327,0,0,1,398.861,606.554Zm-13.725,0v9.126h11.922v-9.126a2.664,2.664,0,0,0-1.435-2.244c-2.1-1.288-7.028-1.251-9.089,0A2.625,2.625,0,0,0,385.136,606.554Z" transform="translate(-230 -601.427)" fill="#818386"/>
      <path id="Caminho_46620" data-name="Caminho 46620" d="M442.285,606.274c.037-3.68-6.918-3.827-9.31-1.582a5.151,5.151,0,0,0-.4,6.439c1.067,1.288,3.054,1.8,4.821,2.245,4.341,1.1,7.8,2.98,7.764,7.985a6.527,6.527,0,0,1-2.391,4.967c-2.355,1.95-6.4,1.987-9.236,1.068a5.006,5.006,0,0,1-3.716-4.71l1.8.037a3.733,3.733,0,0,0,2.76,3.2c2.392.663,5.152.7,7.212-.993a4.65,4.65,0,0,0,1.729-3.569c.037-3.937-3.348-5.556-6.4-6.329-2.207-.552-4.3-1.214-5.593-2.576-2.245-2.429-1.876-6.955.405-9.089,3.312-3.128,12.437-2.466,12.4,2.943Z" transform="translate(-249.163 -601.404)" fill="#818386"/>
      <path id="Caminho_46621" data-name="Caminho 46621" d="M507.3,601.988v25.794h-1.84V601.988Z" transform="translate(-280.33 -601.608)" fill="#818386"/>
      <path id="Caminho_46622" data-name="Caminho 46622" d="M546.176,627.808h-1.95l-11.076-20.79-.92-2.465h-.147l.331,2.612v20.643h-1.84V602.051h1.987l11.075,20.79.92,2.429h.111l-.332-2.613V602.051h1.84Z" transform="translate(-290.676 -601.634)" fill="#818386"/>
      <path id="Caminho_46623" data-name="Caminho 46623" d="M576.717,602.051h15.858v1.619h-6.99l-.074,24.138h-1.877l.074-24.138h-6.991Z" transform="translate(-309.685 -601.634)" fill="#818386"/>
      <path id="Caminho_46624" data-name="Caminho 46624" d="M625.135,613.947h11.848v1.876H625.135c0,1.177-.111,7.029.147,7.764.589,1.729,3.165,2.318,4.894,2.318h6.807v1.876h-6.807v-.036c-3.128.036-6.881-1.435-6.881-4.931V601.988h13.688v1.84H625.135Z" transform="translate(-328.874 -601.608)" fill="#818386"/>
      <path id="Caminho_46625" data-name="Caminho 46625" d="M679.883,625.932v1.876h-5.335c-3.533,0-6.991-1.435-6.991-5.519V602.051h1.876v20.238c0,2.76,2.87,3.643,5.115,3.643Z" transform="translate(-347.109 -601.634)" fill="#818386"/>
      <path id="Caminho_46626" data-name="Caminho 46626" d="M710.593,601.988v25.794h-1.84V601.988Z" transform="translate(-364.081 -601.608)" fill="#818386"/>
      <path id="Caminho_46627" data-name="Caminho 46627" d="M749.467,622.88c0,2.391-1.8,3.9-4.084,4.563a15.422,15.422,0,0,1-7.212.037c-2.391-.626-4.268-2.135-4.3-4.6V606.358c.037-2.686,2.281-4.268,4.967-4.784a15.48,15.48,0,0,1,6.882.332c2.171.7,3.753,2.207,3.753,4.488l-1.84-.036c0-1.325-1.067-2.245-2.465-2.723a13.2,13.2,0,0,0-6-.257c-1.877.368-3.459,1.361-3.459,3.017V622.88c0,1.472,1.288,2.428,2.944,2.833a13.65,13.65,0,0,0,6.218-.037c1.582-.441,2.76-1.361,2.76-2.8v-6.4H742.55v-1.693h6.918Z" transform="translate(-374.427 -601.341)" fill="#818386"/>
      <path id="Caminho_46628" data-name="Caminho 46628" d="M783.411,613.947h11.848v1.876H783.411c0,1.177-.11,7.029.147,7.764.589,1.729,3.165,2.318,4.894,2.318h6.807v1.876h-6.807v-.036c-3.128.036-6.881-1.435-6.881-4.931V601.988h13.688v1.84H783.411Z" transform="translate(-394.08 -601.608)" fill="#818386"/>
      <path id="Caminho_46629" data-name="Caminho 46629" d="M841.435,627.808h-1.95l-11.076-20.79-.92-2.465h-.147l.332,2.612v20.643h-1.84V602.051h1.987l11.076,20.79.92,2.429h.111l-.332-2.613V602.051h1.84Z" transform="translate(-412.315 -601.634)" fill="#818386"/>
      <path id="Caminho_46630" data-name="Caminho 46630" d="M871.974,602.051h15.859v1.619h-6.99l-.074,24.138h-1.877l.074-24.138h-6.992Z" transform="translate(-431.324 -601.634)" fill="#818386"/>
      <path id="Caminho_46631" data-name="Caminho 46631" d="M920.393,613.947h11.848v1.876H920.393c0,1.177-.111,7.029.147,7.764.589,1.729,3.164,2.318,4.894,2.318h6.807v1.876h-6.807v-.036c-3.128.036-6.881-1.435-6.881-4.931V601.988h13.688v1.84H920.393Z" transform="translate(-450.513 -601.608)" fill="#818386"/>
      <path id="Caminho_46632" data-name="Caminho 46632" d="M973.661,606.274c.037-3.68-6.917-3.827-9.309-1.582a5.15,5.15,0,0,0-.4,6.439c1.067,1.288,3.054,1.8,4.82,2.245,4.342,1.1,7.8,2.98,7.764,7.985a6.528,6.528,0,0,1-2.391,4.967c-2.355,1.95-6.4,1.987-9.236,1.068a5.007,5.007,0,0,1-3.717-4.71l1.8.037a3.733,3.733,0,0,0,2.76,3.2c2.392.663,5.152.7,7.212-.993a4.652,4.652,0,0,0,1.729-3.569c.037-3.937-3.349-5.556-6.4-6.329-2.208-.552-4.306-1.214-5.593-2.576-2.245-2.429-1.877-6.955.4-9.089,3.312-3.128,12.437-2.466,12.4,2.943Z" transform="translate(-468.077 -601.404)" fill="#818386"/>
    </g>
    <g id="Grupo_3807" data-name="Grupo 3807" transform="translate(81.789)">
      <rect id="Retângulo_3211" data-name="Retângulo 3211" width="18.745" height="19.44" transform="translate(274.994)" fill="#5a5b5e"/>
      <rect id="Retângulo_3212" data-name="Retângulo 3212" width="20.713" height="21.48" transform="translate(313.462 24.409)" fill="#5a5b5e"/>
      <rect id="Retângulo_3213" data-name="Retângulo 3213" width="24.736" height="25.652" transform="translate(317.664 104.356)" fill="#0085d3"/>
      <rect id="Retângulo_3214" data-name="Retângulo 3214" width="9.863" height="10.228" transform="translate(327.271 69.781)" fill="#1a1818"/>
      <rect id="Retângulo_3215" data-name="Retângulo 3215" width="12.717" height="13.188" transform="translate(304.239 81.835)" fill="#0085d3"/>
      <rect id="Retângulo_3216" data-name="Retângulo 3216" width="12.717" height="13.188" transform="translate(284.963 62.877)" fill="#0085d3"/>
      <rect id="Retângulo_3217" data-name="Retângulo 3217" width="14.324" height="14.855" transform="translate(261.29 36.246)" fill="#1a1818"/>
      <rect id="Retângulo_3218" data-name="Retângulo 3218" width="16.011" height="16.604" transform="translate(229.822 32.491)" fill="#0085d3"/>
      <rect id="Retângulo_3219" data-name="Retângulo 3219" width="9.863" height="10.229" transform="translate(293.48 45.727)" fill="#1a1818"/>
      <rect id="Retângulo_3220" data-name="Retângulo 3220" width="9.863" height="10.229" transform="translate(265.416 61.191)" fill="#0085d3"/>
      <rect id="Retângulo_3221" data-name="Retângulo 3221" width="7.736" height="8.023" transform="translate(309.356 61.788)" fill="#1a1818"/>
      <rect id="Retângulo_3222" data-name="Retângulo 3222" width="7.2" height="7.467" transform="translate(343.115 51.628)" fill="#5a5b5e"/>
      <rect id="Retângulo_3223" data-name="Retângulo 3223" width="7.508" height="7.787" transform="translate(291.137 30.945)" fill="#1a1818"/>
      <rect id="Retângulo_3224" data-name="Retângulo 3224" width="6.992" height="7.251" transform="translate(313.107 8.44)" fill="#5a5b5e"/>
      <rect id="Retângulo_3225" data-name="Retângulo 3225" width="8.272" height="8.578" transform="translate(250.413 12.727)" fill="#1a1818"/>
      <path id="Caminho_46633" data-name="Caminho 46633" d="M472.335,152.972s0-42.562,50.617-48.313a55.044,55.044,0,0,1,25.2,1.6v19.33h13.154v22.624h14.732V128.743h8.418V154h22.1V168.2h7.366v10.523h8.418v6.785h10v21.1h45.176c-.021,9.045-2.727,18.648-8.466,28.036-12.656,20.707-39.109,20.707-52.916,20.707H458.53s-39.112-2.3-39.112-40.263S442.426,157.576,472.335,152.972Z" transform="translate(-325.205 -68.265)" fill="#0085d3"/>
      <g id="Grupo_3806" data-name="Grupo 3806" transform="translate(0 60.92)">
        <path id="Caminho_46634" data-name="Caminho 46634" d="M341.48,233.649c0-36.67,20.1-62.924,54.386-72.007a61.58,61.58,0,0,1,4.616-12.715,76.465,76.465,0,0,0-9.011-1.444s-26.583-5.218-45.287,15.66c-16.735-10.437-57.1-4.347-57.1,28.713-27.565,6.959-38.316,31.281-22.644,53.941,10.831,15.66,33.473,15.66,45.285,15.66h37.1C344.338,254.18,341.48,245.041,341.48,233.649Z" transform="translate(-259.199 -146.904)" fill="#0085d3"/>
      </g>
    </g>
  </g>
</svg>
